# xmcd CD database file
#
# Track frame offsets:
#	150
#	11090
#	15613
#	18608
#	25663
#	32870
#	36960
#	47820
#	50410
#	61873
#	67530
#	74113
#	79655
#	92693
#	102493
#	185288
#
# Disc length: 2621 seconds
#
# Revision: 0
# Processed by: cddbd v1.5.1PL2 Copyright (c) Steve Scherf et al.
# Submitted via: CDex 1.51
#
DISCID=cd0a3b10
DTITLE=Daniel Speer Trombone Consort - fur five
DYEAR=1900
DGENRE=Classical
TTITLE0=Introduction et Marche Royale du Lion
TTITLE1=Poules et Coqs
TTITLE2=Hemiones(animaux veloces)
TTITLE3=Tortues
TTITLE4=L'Elephant
TTITLE5=Kangourous
TTITLE6=Aquarium
TTITLE7=Personnages a longues oreilles
TTITLE8=Le Coucou au fond des bois
TTITLE9=Voliere
TTITLE10=Pianistes
TTITLE11=Fossiles
TTITLE12=Le Cygne
TTITLE13=Final
TTITLE14=Rhapsody in Blue
TTITLE15=Fur Five
EXTD=
EXTT0=
EXTT1=
EXTT2=
EXTT3=
EXTT4=
EXTT5=
EXTT6=
EXTT7=
EXTT8=
EXTT9=
EXTT10=
EXTT11=
EXTT12=
EXTT13=
EXTT14=
EXTT15=
PLAYORDER=
